<svg width="512" height="189" viewBox="0 0 512 189" fill="none" xmlns="http://www.w3.org/2000/svg">
<path d="M506 1H6C3.23858 1 1 3.23858 1 6V183C1 185.761 3.23858 188 6 188H506C508.761 188 511 185.761 511 183V6C511 3.23858 508.761 1 506 1Z" fill="#D6F5E5" stroke="#35D07F" stroke-width="2"/>
<path d="M41.5601 37.0002H50.0801V39.0802H43.8801V42.4802H49.6801V44.5202H43.8801V48.9202H50.0801V51.0002H41.5601V37.0002ZM53.4859 44.2002L52.6059 42.6802C53.0325 42.4269 53.5725 42.1802 54.2259 41.9402C54.8792 41.7002 55.6325 41.5802 56.4859 41.5802C57.6192 41.5802 58.5459 41.8335 59.2659 42.3402C59.9992 42.8335 60.3659 43.5335 60.3659 44.4402V51.0002H58.2459V49.7402C57.9525 50.2335 57.5192 50.6002 56.9459 50.8402C56.3725 51.0802 55.7925 51.2002 55.2059 51.2002C54.6325 51.2002 54.0992 51.0869 53.6059 50.8602C53.1125 50.6335 52.7192 50.3002 52.4259 49.8602C52.1325 49.4202 51.9859 48.8869 51.9859 48.2602C51.9859 47.3669 52.2992 46.6602 52.9259 46.1402C53.5659 45.6069 54.4525 45.3402 55.5859 45.3402C56.1859 45.3402 56.7059 45.4069 57.1459 45.5402C57.5859 45.6735 57.9525 45.8202 58.2459 45.9802V44.8602C58.2459 44.3002 58.0592 43.9069 57.6859 43.6802C57.3259 43.4535 56.8592 43.3402 56.2859 43.3402C55.6325 43.3402 55.0525 43.4469 54.5459 43.6602C54.0392 43.8735 53.6859 44.0535 53.4859 44.2002ZM54.1659 48.1402C54.1659 48.5935 54.3259 48.9469 54.6459 49.2002C54.9792 49.4535 55.3925 49.5802 55.8859 49.5802C56.5259 49.5802 57.0792 49.3869 57.5459 49.0002C58.0125 48.6002 58.2459 48.0535 58.2459 47.3602V47.2202C57.6059 46.9135 56.8925 46.7602 56.1059 46.7602C55.4259 46.7602 54.9325 46.8869 54.6259 47.1402C54.3192 47.3802 54.1659 47.7135 54.1659 48.1402ZM67.764 44.1202C67.564 43.9602 67.3773 43.8402 67.204 43.7602C67.0307 43.6669 66.8107 43.6202 66.544 43.6202C66.0107 43.6202 65.624 43.8202 65.384 44.2202C65.144 44.6202 65.024 45.1535 65.024 45.8202V51.0002H62.884V41.8002H65.024V42.9202C65.2907 42.5069 65.6107 42.1869 65.984 41.9602C66.3573 41.7202 66.7373 41.6002 67.124 41.6002C67.4573 41.6002 67.7707 41.6535 68.064 41.7602C68.3573 41.8669 68.6107 42.0402 68.824 42.2802L67.764 44.1202ZM76.2064 45.4002C76.2064 44.0269 75.6397 43.3402 74.5064 43.3402C73.893 43.3402 73.393 43.5269 73.0064 43.9002C72.633 44.2735 72.4464 44.7735 72.4464 45.4002V51.0002H70.2864V41.8002H72.4464V43.2202C73.033 42.1402 73.9597 41.6002 75.2264 41.6002C76.2664 41.6002 77.0597 41.9202 77.6064 42.5602C78.153 43.1869 78.4264 44.0535 78.4264 45.1602V51.0002H76.2064V45.4002ZM87.3609 37.0002H91.5809C92.6075 37.0002 93.4942 37.1802 94.2409 37.5402C94.9875 37.8869 95.5675 38.3869 95.9809 39.0402C96.3942 39.6935 96.6009 40.4669 96.6009 41.3602C96.6009 42.6935 96.1475 43.7535 95.2409 44.5402C94.3342 45.3135 93.1142 45.7002 91.5809 45.7002H89.7209V51.0002H87.3609V37.0002ZM91.5809 39.0802H89.7209V43.6202H91.5809C92.3942 43.6202 93.0475 43.4335 93.5409 43.0602C94.0342 42.6735 94.2809 42.1069 94.2809 41.3602C94.2809 40.6135 94.0342 40.0469 93.5409 39.6602C93.0475 39.2735 92.3942 39.0802 91.5809 39.0802ZM103.233 44.1202C103.033 43.9602 102.846 43.8402 102.673 43.7602C102.499 43.6669 102.279 43.6202 102.013 43.6202C101.479 43.6202 101.093 43.8202 100.853 44.2202C100.613 44.6202 100.493 45.1535 100.493 45.8202V51.0002H98.3528V41.8002H100.493V42.9202C100.759 42.5069 101.079 42.1869 101.453 41.9602C101.826 41.7202 102.206 41.6002 102.593 41.6002C102.926 41.6002 103.239 41.6535 103.533 41.7602C103.826 41.8669 104.079 42.0402 104.293 42.2802L103.233 44.1202ZM104.762 46.4002C104.762 45.4535 104.975 44.6202 105.402 43.9002C105.842 43.1802 106.435 42.6202 107.182 42.2202C107.942 41.8069 108.789 41.6002 109.722 41.6002C110.669 41.6002 111.515 41.8069 112.262 42.2202C113.009 42.6202 113.595 43.1802 114.022 43.9002C114.462 44.6202 114.682 45.4535 114.682 46.4002C114.682 47.3335 114.462 48.1669 114.022 48.9002C113.595 49.6202 113.009 50.1869 112.262 50.6002C111.515 51.0002 110.669 51.2002 109.722 51.2002C108.789 51.2002 107.942 51.0002 107.182 50.6002C106.435 50.1869 105.842 49.6202 105.402 48.9002C104.975 48.1669 104.762 47.3335 104.762 46.4002ZM106.982 46.4002C106.982 47.2535 107.242 47.9535 107.762 48.5002C108.295 49.0335 108.949 49.3002 109.722 49.3002C110.509 49.3002 111.162 49.0335 111.682 48.5002C112.202 47.9535 112.462 47.2535 112.462 46.4002C112.462 45.5335 112.202 44.8335 111.682 44.3002C111.162 43.7669 110.509 43.5002 109.722 43.5002C108.949 43.5002 108.295 43.7669 107.762 44.3002C107.242 44.8335 106.982 45.5335 106.982 46.4002ZM115.972 41.8002H116.972V38.4002C116.972 37.3335 117.225 36.5269 117.732 35.9802C118.252 35.4335 118.992 35.1602 119.952 35.1602C120.485 35.1602 120.918 35.2602 121.252 35.4602C121.598 35.6469 121.858 35.8402 122.032 36.0402L121.032 37.7202C120.898 37.5069 120.745 37.3669 120.572 37.3002C120.398 37.2335 120.225 37.2002 120.052 37.2002C119.758 37.2002 119.525 37.3269 119.352 37.5802C119.178 37.8202 119.092 38.2335 119.092 38.8202V41.8002H121.252V43.7002H119.092V51.0002H116.972V43.7002H115.972V41.8002ZM122.823 38.1402C122.823 37.7669 122.957 37.4535 123.223 37.2002C123.49 36.9469 123.81 36.8202 124.183 36.8202C124.57 36.8202 124.89 36.9469 125.143 37.2002C125.41 37.4535 125.543 37.7669 125.543 38.1402C125.543 38.5135 125.41 38.8269 125.143 39.0802C124.89 39.3335 124.57 39.4602 124.183 39.4602C123.81 39.4602 123.49 39.3335 123.223 39.0802C122.957 38.8269 122.823 38.5135 122.823 38.1402ZM123.123 41.8002H125.243V51.0002H123.123V41.8002ZM126.936 41.8002H128.476V38.6002H130.616V41.8002H132.156V43.7002H130.616V51.0002H128.476V43.7002H126.936V41.8002ZM134.066 47.9802C134.519 48.4735 134.966 48.8535 135.406 49.1202C135.859 49.3735 136.319 49.5002 136.786 49.5002C137.172 49.5002 137.472 49.4135 137.686 49.2402C137.912 49.0535 138.026 48.8135 138.026 48.5202C138.026 48.1202 137.832 47.8069 137.446 47.5802C137.072 47.3402 136.579 47.1135 135.966 46.9002C135.552 46.7402 135.139 46.5535 134.726 46.3402C134.326 46.1135 133.992 45.8269 133.726 45.4802C133.472 45.1202 133.346 44.6602 133.346 44.1002C133.346 43.5402 133.492 43.0802 133.786 42.7202C134.079 42.3469 134.466 42.0669 134.946 41.8802C135.426 41.6935 135.946 41.6002 136.506 41.6002C137.252 41.6002 137.939 41.7535 138.566 42.0602C139.192 42.3669 139.692 42.7535 140.066 43.2202L138.866 44.5002C138.572 44.1535 138.206 43.8669 137.766 43.6402C137.339 43.4002 136.899 43.2802 136.446 43.2802C136.139 43.2802 135.886 43.3469 135.686 43.4802C135.486 43.6135 135.386 43.8069 135.386 44.0602C135.386 44.4069 135.572 44.6802 135.946 44.8802C136.332 45.0802 136.812 45.2935 137.386 45.5202C137.892 45.7202 138.359 45.9402 138.786 46.1802C139.212 46.4069 139.552 46.6935 139.806 47.0402C140.072 47.3869 140.206 47.8402 140.206 48.4002C140.206 49.2669 139.906 49.9669 139.306 50.5002C138.719 51.0202 137.926 51.2802 136.926 51.2802C135.979 51.2802 135.152 51.0735 134.446 50.6602C133.752 50.2469 133.206 49.7735 132.806 49.2402L134.066 47.9802ZM157.838 46.4002C157.838 47.4002 157.632 48.2602 157.218 48.9802C156.805 49.7002 156.258 50.2535 155.578 50.6402C154.898 51.0135 154.158 51.2002 153.358 51.2002C151.985 51.2002 150.938 50.6269 150.218 49.4802V51.0002H148.038V35.4002H150.218V43.3202C150.938 42.1735 151.985 41.6002 153.358 41.6002C154.158 41.6002 154.898 41.7935 155.578 42.1802C156.258 42.5535 156.805 43.1002 157.218 43.8202C157.632 44.5269 157.838 45.3869 157.838 46.4002ZM155.598 46.4002C155.598 45.4802 155.325 44.7669 154.778 44.2602C154.232 43.7402 153.585 43.4802 152.838 43.4802C152.425 43.4802 152.018 43.5935 151.618 43.8202C151.218 44.0469 150.885 44.3802 150.618 44.8202C150.352 45.2469 150.218 45.7735 150.218 46.4002C150.218 47.0269 150.352 47.5602 150.618 48.0002C150.885 48.4269 151.218 48.7535 151.618 48.9802C152.018 49.2069 152.425 49.3202 152.838 49.3202C153.585 49.3202 154.232 49.0669 154.778 48.5602C155.325 48.0402 155.598 47.3202 155.598 46.4002ZM167.723 41.8002L161.723 55.4002H159.423L161.843 49.9202L158.123 41.8002H160.603L163.023 47.7802L165.403 41.8002H167.723ZM175.193 37.0002H177.573V51.0002H175.193V37.0002ZM186.441 45.4002C186.441 44.0269 185.874 43.3402 184.741 43.3402C184.127 43.3402 183.627 43.5269 183.241 43.9002C182.867 44.2735 182.681 44.7735 182.681 45.4002V51.0002H180.521V41.8002H182.681V43.2202C183.267 42.1402 184.194 41.6002 185.461 41.6002C186.501 41.6002 187.294 41.9202 187.841 42.5602C188.387 43.1869 188.661 44.0535 188.661 45.1602V51.0002H186.441V45.4002ZM189.921 41.8002H192.301L194.701 47.7402L197.101 41.8002H199.461L194.701 51.8602L189.921 41.8002ZM204.501 51.2002C203.554 51.2002 202.728 51.0002 202.021 50.6002C201.314 50.2002 200.768 49.6402 200.381 48.9202C199.994 48.2002 199.801 47.3602 199.801 46.4002C199.801 45.4269 199.994 44.5869 200.381 43.8802C200.781 43.1602 201.341 42.6002 202.061 42.2002C202.781 41.8002 203.628 41.6002 204.601 41.6002C206.054 41.6002 207.181 42.0202 207.981 42.8602C208.794 43.6869 209.201 44.8335 209.201 46.3002C209.201 46.4202 209.194 46.5402 209.181 46.6602C209.181 46.7669 209.181 46.8469 209.181 46.9002H202.021C202.101 47.7002 202.361 48.3202 202.801 48.7602C203.254 49.2002 203.854 49.4202 204.601 49.4202C205.774 49.4202 206.654 48.9335 207.241 47.9602L209.121 48.7002C208.161 50.3669 206.621 51.2002 204.501 51.2002ZM204.581 43.2402C203.181 43.2402 202.348 43.9602 202.081 45.4002H206.841C206.801 44.7469 206.574 44.2269 206.161 43.8402C205.748 43.4402 205.221 43.2402 204.581 43.2402ZM211.683 47.9802C212.136 48.4735 212.583 48.8535 213.023 49.1202C213.476 49.3735 213.936 49.5002 214.403 49.5002C214.789 49.5002 215.089 49.4135 215.303 49.2402C215.529 49.0535 215.643 48.8135 215.643 48.5202C215.643 48.1202 215.449 47.8069 215.063 47.5802C214.689 47.3402 214.196 47.1135 213.583 46.9002C213.169 46.7402 212.756 46.5535 212.343 46.3402C211.943 46.1135 211.609 45.8269 211.343 45.4802C211.089 45.1202 210.963 44.6602 210.963 44.1002C210.963 43.5402 211.109 43.0802 211.403 42.7202C211.696 42.3469 212.083 42.0669 212.563 41.8802C213.043 41.6935 213.563 41.6002 214.123 41.6002C214.869 41.6002 215.556 41.7535 216.183 42.0602C216.809 42.3669 217.309 42.7535 217.683 43.2202L216.483 44.5002C216.189 44.1535 215.823 43.8669 215.383 43.6402C214.956 43.4002 214.516 43.2802 214.063 43.2802C213.756 43.2802 213.503 43.3469 213.303 43.4802C213.103 43.6135 213.003 43.8069 213.003 44.0602C213.003 44.4069 213.189 44.6802 213.563 44.8802C213.949 45.0802 214.429 45.2935 215.003 45.5202C215.509 45.7202 215.976 45.9402 216.403 46.1802C216.829 46.4069 217.169 46.6935 217.423 47.0402C217.689 47.3869 217.823 47.8402 217.823 48.4002C217.823 49.2669 217.523 49.9669 216.923 50.5002C216.336 51.0202 215.543 51.2802 214.543 51.2802C213.596 51.2802 212.769 51.0735 212.063 50.6602C211.369 50.2469 210.823 49.7735 210.423 49.2402L211.683 47.9802ZM218.459 41.8002H219.999V38.6002H222.139V41.8002H223.679V43.7002H222.139V51.0002H219.999V43.7002H218.459V41.8002ZM225.089 38.1402C225.089 37.7669 225.222 37.4535 225.489 37.2002C225.756 36.9469 226.076 36.8202 226.449 36.8202C226.836 36.8202 227.156 36.9469 227.409 37.2002C227.676 37.4535 227.809 37.7669 227.809 38.1402C227.809 38.5135 227.676 38.8269 227.409 39.0802C227.156 39.3335 226.836 39.4602 226.449 39.4602C226.076 39.4602 225.756 39.3335 225.489 39.0802C225.222 38.8269 225.089 38.5135 225.089 38.1402ZM225.389 41.8002H227.509V51.0002H225.389V41.8002ZM236.402 45.4002C236.402 44.0269 235.835 43.3402 234.702 43.3402C234.088 43.3402 233.588 43.5269 233.202 43.9002C232.828 44.2735 232.642 44.7735 232.642 45.4002V51.0002H230.482V41.8002H232.642V43.2202C233.228 42.1402 234.155 41.6002 235.422 41.6002C236.462 41.6002 237.255 41.9202 237.802 42.5602C238.348 43.1869 238.622 44.0535 238.622 45.1602V51.0002H236.402V45.4002ZM240.86 51.6202H243.02C243.047 52.2335 243.287 52.7469 243.74 53.1602C244.207 53.5869 244.827 53.8002 245.6 53.8002C246.053 53.8002 246.487 53.6935 246.9 53.4802C247.313 53.2669 247.647 52.9402 247.9 52.5002C248.167 52.0602 248.3 51.4935 248.3 50.8002V49.4202C247.58 50.5402 246.533 51.1002 245.16 51.1002C244.36 51.1002 243.62 50.9135 242.94 50.5402C242.26 50.1669 241.713 49.6269 241.3 48.9202C240.887 48.2135 240.68 47.3602 240.68 46.3602C240.68 45.3469 240.887 44.4869 241.3 43.7802C241.713 43.0735 242.26 42.5335 242.94 42.1602C243.62 41.7869 244.36 41.6002 245.16 41.6002C246.533 41.6002 247.58 42.1669 248.3 43.3002V41.8002H250.42V50.8002C250.42 51.9069 250.193 52.8202 249.74 53.5402C249.3 54.2735 248.72 54.8135 248 55.1602C247.28 55.5069 246.5 55.6802 245.66 55.6802C244.167 55.6802 243 55.3002 242.16 54.5402C241.333 53.7935 240.9 52.8202 240.86 51.6202ZM242.92 46.3602C242.92 47.2802 243.193 47.9869 243.74 48.4802C244.287 48.9735 244.933 49.2202 245.68 49.2202C246.093 49.2202 246.5 49.1135 246.9 48.9002C247.3 48.6869 247.633 48.3669 247.9 47.9402C248.167 47.5135 248.3 46.9869 248.3 46.3602C248.3 45.7335 248.167 45.2069 247.9 44.7802C247.633 44.3535 247.3 44.0335 246.9 43.8202C246.5 43.5935 246.093 43.4802 245.68 43.4802C244.933 43.4802 244.287 43.7335 243.74 44.2402C243.193 44.7335 242.92 45.4402 242.92 46.3602ZM261.035 44.0002C261.035 44.9869 261.255 45.8535 261.695 46.6002C262.135 47.3469 262.715 47.9269 263.435 48.3402C264.168 48.7402 264.962 48.9402 265.815 48.9402C266.802 48.9402 267.655 48.7535 268.375 48.3802C269.108 47.9935 269.715 47.5135 270.195 46.9402V49.7602C269.622 50.2402 268.988 50.6069 268.295 50.8602C267.615 51.1135 266.762 51.2402 265.735 51.2402C264.708 51.2402 263.755 51.0669 262.875 50.7202C261.995 50.3602 261.222 49.8602 260.555 49.2202C259.902 48.5802 259.388 47.8202 259.015 46.9402C258.655 46.0469 258.475 45.0669 258.475 44.0002C258.475 42.9335 258.655 41.9602 259.015 41.0802C259.388 40.1869 259.902 39.4202 260.555 38.7802C261.222 38.1402 261.995 37.6469 262.875 37.3002C263.755 36.9402 264.708 36.7602 265.735 36.7602C266.762 36.7602 267.615 36.8869 268.295 37.1402C268.988 37.3935 269.622 37.7602 270.195 38.2402V41.0602C269.715 40.4869 269.108 40.0135 268.375 39.6402C267.655 39.2535 266.802 39.0602 265.815 39.0602C264.962 39.0602 264.168 39.2669 263.435 39.6802C262.715 40.0802 262.135 40.6535 261.695 41.4002C261.255 42.1335 261.035 43.0002 261.035 44.0002ZM273.103 37.0002H281.623V39.0802H275.423V42.4802H281.223V44.5202H275.423V48.9202H281.623V51.0002H273.103V37.0002ZM284.529 37.0002H286.889V48.8802H292.449V51.0002H284.529V37.0002ZM292.752 44.0002C292.752 42.9602 292.932 42.0002 293.292 41.1202C293.652 40.2269 294.159 39.4602 294.812 38.8202C295.479 38.1669 296.252 37.6602 297.132 37.3002C298.012 36.9402 298.972 36.7602 300.012 36.7602C301.052 36.7602 302.012 36.9402 302.892 37.3002C303.786 37.6602 304.559 38.1669 305.212 38.8202C305.879 39.4602 306.392 40.2269 306.752 41.1202C307.112 42.0002 307.292 42.9602 307.292 44.0002C307.292 45.0402 307.112 46.0069 306.752 46.9002C306.392 47.7802 305.886 48.5535 305.232 49.2202C304.579 49.8735 303.806 50.3869 302.912 50.7602C302.032 51.1202 301.066 51.3002 300.012 51.3002C298.959 51.3002 297.992 51.1202 297.112 50.7602C296.232 50.3869 295.466 49.8735 294.812 49.2202C294.159 48.5535 293.652 47.7802 293.292 46.9002C292.932 46.0069 292.752 45.0402 292.752 44.0002ZM295.252 44.0002C295.252 44.9602 295.452 45.8202 295.852 46.5802C296.266 47.3269 296.832 47.9135 297.552 48.3402C298.272 48.7669 299.092 48.9802 300.012 48.9802C300.946 48.9802 301.766 48.7669 302.472 48.3402C303.192 47.9135 303.752 47.3269 304.152 46.5802C304.566 45.8202 304.772 44.9602 304.772 44.0002C304.772 43.0402 304.572 42.1869 304.172 41.4402C303.772 40.6802 303.212 40.0869 302.492 39.6602C301.786 39.2335 300.959 39.0202 300.012 39.0202C299.092 39.0202 298.272 39.2335 297.552 39.6602C296.832 40.0869 296.266 40.6802 295.852 41.4402C295.452 42.1869 295.252 43.0402 295.252 44.0002ZM309.827 47.9802C310.281 48.4735 310.727 48.8535 311.167 49.1202C311.621 49.3735 312.081 49.5002 312.547 49.5002C312.934 49.5002 313.234 49.4135 313.447 49.2402C313.674 49.0535 313.787 48.8135 313.787 48.5202C313.787 48.1202 313.594 47.8069 313.207 47.5802C312.834 47.3402 312.341 47.1135 311.727 46.9002C311.314 46.7402 310.901 46.5535 310.487 46.3402C310.087 46.1135 309.754 45.8269 309.487 45.4802C309.234 45.1202 309.107 44.6602 309.107 44.1002C309.107 43.5402 309.254 43.0802 309.547 42.7202C309.841 42.3469 310.227 42.0669 310.707 41.8802C311.187 41.6935 311.707 41.6002 312.267 41.6002C313.014 41.6002 313.701 41.7535 314.327 42.0602C314.954 42.3669 315.454 42.7535 315.827 43.2202L314.627 44.5002C314.334 44.1535 313.967 43.8669 313.527 43.6402C313.101 43.4002 312.661 43.2802 312.207 43.2802C311.901 43.2802 311.647 43.3469 311.447 43.4802C311.247 43.6135 311.147 43.8069 311.147 44.0602C311.147 44.4069 311.334 44.6802 311.707 44.8802C312.094 45.0802 312.574 45.2935 313.147 45.5202C313.654 45.7202 314.121 45.9402 314.547 46.1802C314.974 46.4069 315.314 46.6935 315.567 47.0402C315.834 47.3869 315.967 47.8402 315.967 48.4002C315.967 49.2669 315.667 49.9669 315.067 50.5002C314.481 51.0202 313.687 51.2802 312.687 51.2802C311.741 51.2802 310.914 51.0735 310.207 50.6602C309.514 50.2469 308.967 49.7735 308.567 49.2402L309.827 47.9802Z" fill="#505050"/>
<path d="M41.28 74.7999H42.64V85.9999H41.28V74.7999ZM49.8419 81.5199C49.8419 80.2932 49.3192 79.6799 48.2739 79.6799C47.7192 79.6799 47.2659 79.8506 46.9139 80.1919C46.5725 80.5332 46.4019 80.9759 46.4019 81.5199V85.9999H45.1219V78.6399H46.4019V79.7919C46.8819 78.9172 47.6125 78.4799 48.5939 78.4799C49.3725 78.4799 49.9859 78.7412 50.4339 79.2639C50.8925 79.7759 51.1219 80.4746 51.1219 81.3599V85.9999H49.8419V81.5199ZM52.25 78.6399H53.69L55.77 83.8399L57.85 78.6399H59.29L55.77 86.5599L52.25 78.6399ZM63.1105 86.1599C62.4278 86.1599 61.8198 85.9999 61.2865 85.6799C60.7638 85.3492 60.3532 84.8959 60.0545 84.3199C59.7665 83.7439 59.6225 83.0772 59.6225 82.3199C59.6225 81.5519 59.7718 80.8799 60.0705 80.3039C60.3798 79.7279 60.8065 79.2799 61.3505 78.9599C61.9052 78.6399 62.5452 78.4799 63.2705 78.4799C64.3478 78.4799 65.1958 78.8159 65.8145 79.4879C66.4332 80.1599 66.7425 81.0826 66.7425 82.2559C66.7425 82.3306 66.7372 82.4106 66.7265 82.4959C66.7265 82.5706 66.7265 82.6186 66.7265 82.6399H60.9345C60.9878 83.3759 61.2172 83.9466 61.6225 84.3519C62.0278 84.7572 62.5772 84.9599 63.2705 84.9599C64.2732 84.9599 65.0412 84.5172 65.5745 83.6319L66.6145 84.2879C65.8465 85.5359 64.6785 86.1599 63.1105 86.1599ZM63.2705 79.5999C62.6412 79.5999 62.1292 79.7706 61.7345 80.1119C61.3398 80.4426 61.0892 80.9226 60.9825 81.5519H65.3505C65.3078 80.9652 65.0945 80.4959 64.7105 80.1439C64.3372 79.7812 63.8572 79.5999 63.2705 79.5999ZM68.8009 83.7439C69.0249 84.0852 69.2969 84.3786 69.6169 84.6239C69.9475 84.8692 70.3422 84.9919 70.8009 84.9919C71.1635 84.9919 71.4462 84.9119 71.6489 84.7519C71.8622 84.5812 71.9689 84.3519 71.9689 84.0639C71.9689 83.8079 71.8835 83.5946 71.7129 83.4239C71.5529 83.2426 71.3449 83.0932 71.0889 82.9759C70.8329 82.8479 70.5609 82.7306 70.2729 82.6239C69.9529 82.4959 69.6275 82.3466 69.2969 82.1759C68.9769 81.9946 68.7049 81.7652 68.4809 81.4879C68.2675 81.1999 68.1609 80.8426 68.1609 80.4159C68.1609 79.9786 68.2729 79.6159 68.4969 79.3279C68.7315 79.0399 69.0302 78.8266 69.3929 78.6879C69.7662 78.5492 70.1502 78.4799 70.5449 78.4799C71.1315 78.4799 71.6649 78.6186 72.1449 78.8959C72.6249 79.1732 72.9769 79.5146 73.2009 79.9199L72.1769 80.5759C71.9742 80.2986 71.7182 80.0692 71.4089 79.8879C71.1102 79.7066 70.7689 79.6159 70.3849 79.6159C70.1182 79.6159 69.8889 79.6746 69.6969 79.7919C69.5049 79.9092 69.4089 80.0906 69.4089 80.3359C69.4089 80.6346 69.5635 80.8799 69.8729 81.0719C70.1929 81.2532 70.5502 81.4239 70.9449 81.5839C71.3715 81.7546 71.7609 81.9412 72.1129 82.1439C72.4649 82.3359 72.7422 82.5706 72.9449 82.8479C73.1582 83.1252 73.2649 83.4826 73.2649 83.9199C73.2649 84.5599 73.0302 85.0932 72.5609 85.5199C72.1022 85.9466 71.4942 86.1599 70.7369 86.1599C70.2462 86.1599 69.8035 86.0746 69.4089 85.9039C69.0142 85.7226 68.6782 85.4932 68.4009 85.2159C68.1342 84.9386 67.9315 84.6559 67.7929 84.3679L68.8009 83.7439ZM73.83 78.6399H75.03V76.0799H76.31V78.6399H77.51V79.8399H76.31V85.9999H75.03V79.8399H73.83V78.6399ZM90.9506 82.3199C90.9506 83.1092 90.7853 83.7919 90.4546 84.3679C90.124 84.9439 89.6813 85.3866 89.1266 85.6959C88.5826 86.0052 87.9746 86.1599 87.3026 86.1599C86.7586 86.1599 86.268 86.0372 85.8306 85.7919C85.404 85.5466 85.0573 85.1946 84.7906 84.7359V85.9999H83.5106V73.5199H84.7906V79.9039C85.0573 79.4452 85.404 79.0932 85.8306 78.8479C86.268 78.6026 86.7586 78.4799 87.3026 78.4799C87.9746 78.4799 88.5826 78.6346 89.1266 78.9439C89.6813 79.2532 90.124 79.6959 90.4546 80.2719C90.7853 80.8372 90.9506 81.5199 90.9506 82.3199ZM89.6546 82.3199C89.6546 81.7546 89.5373 81.2746 89.3026 80.8799C89.0786 80.4852 88.7746 80.1866 88.3906 79.9839C88.0173 79.7812 87.6013 79.6799 87.1426 79.6799C86.7693 79.6799 86.4013 79.7812 86.0386 79.9839C85.676 80.1866 85.3773 80.4852 85.1426 80.8799C84.908 81.2746 84.7906 81.7546 84.7906 82.3199C84.7906 82.8852 84.908 83.3652 85.1426 83.7599C85.3773 84.1546 85.676 84.4532 86.0386 84.6559C86.4013 84.8586 86.7693 84.9599 87.1426 84.9599C87.6013 84.9599 88.0173 84.8586 88.3906 84.6559C88.7746 84.4532 89.0786 84.1546 89.3026 83.7599C89.5373 83.3652 89.6546 82.8852 89.6546 82.3199ZM98.3213 78.6399L93.5213 89.5199H92.0813L94.0973 84.9599L91.2812 78.6399H92.8013L94.8653 83.7119L96.8813 78.6399H98.3213ZM103.125 78.6399H104.565L106.645 83.8399L108.725 78.6399H110.165L106.645 86.5599L103.125 78.6399ZM110.498 82.3199C110.498 81.5732 110.663 80.9119 110.993 80.3359C111.335 79.7599 111.794 79.3066 112.37 78.9759C112.946 78.6452 113.591 78.4799 114.306 78.4799C115.031 78.4799 115.676 78.6452 116.242 78.9759C116.818 79.3066 117.271 79.7599 117.602 80.3359C117.943 80.9119 118.114 81.5732 118.114 82.3199C118.114 83.0559 117.943 83.7172 117.602 84.3039C117.271 84.8799 116.818 85.3332 116.242 85.6639C115.676 85.9946 115.031 86.1599 114.306 86.1599C113.591 86.1599 112.946 85.9946 112.37 85.6639C111.794 85.3332 111.335 84.8799 110.993 84.3039C110.663 83.7172 110.498 83.0559 110.498 82.3199ZM111.794 82.3199C111.794 82.8319 111.9 83.2852 112.114 83.6799C112.338 84.0746 112.636 84.3892 113.01 84.6239C113.394 84.8479 113.826 84.9599 114.306 84.9599C114.786 84.9599 115.212 84.8479 115.586 84.6239C115.97 84.3892 116.268 84.0746 116.482 83.6799C116.706 83.2852 116.818 82.8319 116.818 82.3199C116.818 81.8079 116.706 81.3546 116.482 80.9599C116.268 80.5546 115.97 80.2399 115.586 80.0159C115.212 79.7919 114.786 79.6799 114.306 79.6799C113.826 79.6799 113.394 79.7919 113.01 80.0159C112.636 80.2399 112.338 80.5546 112.114 80.9599C111.9 81.3546 111.794 81.8079 111.794 82.3199ZM118.752 78.6399H119.952V76.0799H121.232V78.6399H122.432V79.8399H121.232V85.9999H119.952V79.8399H118.752V78.6399ZM123.716 75.5999C123.716 75.3546 123.801 75.1466 123.972 74.9759C124.153 74.8052 124.361 74.7199 124.596 74.7199C124.841 74.7199 125.049 74.8052 125.22 74.9759C125.39 75.1466 125.476 75.3546 125.476 75.5999C125.476 75.8346 125.39 76.0426 125.22 76.2239C125.049 76.3946 124.841 76.4799 124.596 76.4799C124.361 76.4799 124.153 76.3946 123.972 76.2239C123.801 76.0426 123.716 75.8346 123.716 75.5999ZM123.956 78.6399H125.236V85.9999H123.956V78.6399ZM132.592 81.5199C132.592 80.2932 132.069 79.6799 131.024 79.6799C130.469 79.6799 130.016 79.8506 129.664 80.1919C129.323 80.5332 129.152 80.9759 129.152 81.5199V85.9999H127.872V78.6399H129.152V79.7919C129.632 78.9172 130.363 78.4799 131.344 78.4799C132.123 78.4799 132.736 78.7412 133.184 79.2639C133.643 79.7759 133.872 80.4746 133.872 81.3599V85.9999H132.592V81.5199ZM135.782 86.4799H137.078C137.078 86.8319 137.174 87.1572 137.366 87.4559C137.558 87.7652 137.83 88.0106 138.182 88.1919C138.534 88.3839 138.95 88.4799 139.43 88.4799C139.803 88.4799 140.171 88.3892 140.534 88.2079C140.897 88.0266 141.195 87.7386 141.43 87.3439C141.675 86.9599 141.798 86.4586 141.798 85.8399V84.7359C141.531 85.1946 141.179 85.5466 140.742 85.7919C140.315 86.0372 139.83 86.1599 139.286 86.1599C138.625 86.1599 138.017 86.0052 137.462 85.6959C136.907 85.3866 136.465 84.9439 136.134 84.3679C135.803 83.7919 135.638 83.1092 135.638 82.3199C135.638 81.5199 135.803 80.8372 136.134 80.2719C136.465 79.6959 136.907 79.2532 137.462 78.9439C138.017 78.6346 138.625 78.4799 139.286 78.4799C139.83 78.4799 140.315 78.6026 140.742 78.8479C141.179 79.0932 141.531 79.4452 141.798 79.9039V78.6399H143.078V85.8399C143.078 86.6826 142.902 87.3866 142.55 87.9519C142.198 88.5279 141.745 88.9599 141.19 89.2479C140.635 89.5359 140.049 89.6799 139.43 89.6799C138.715 89.6799 138.081 89.5466 137.526 89.2799C136.982 89.0132 136.555 88.6346 136.246 88.1439C135.937 87.6639 135.782 87.1092 135.782 86.4799ZM136.934 82.3199C136.934 82.8852 137.046 83.3652 137.27 83.7599C137.505 84.1546 137.814 84.4532 138.198 84.6559C138.582 84.8586 138.998 84.9599 139.446 84.9599C139.819 84.9599 140.187 84.8586 140.55 84.6559C140.913 84.4532 141.211 84.1546 141.446 83.7599C141.681 83.3652 141.798 82.8852 141.798 82.3199C141.798 81.7546 141.681 81.2746 141.446 80.8799C141.211 80.4852 140.913 80.1866 140.55 79.9839C140.187 79.7812 139.819 79.6799 139.446 79.6799C138.998 79.6799 138.582 79.7812 138.198 79.9839C137.814 80.1866 137.505 80.4852 137.27 80.8799C137.046 81.2746 136.934 81.7546 136.934 82.3199ZM149.64 78.6399H150.36V75.9199C150.36 75.0452 150.547 74.3999 150.92 73.9839C151.293 73.5679 151.816 73.3599 152.488 73.3599C152.829 73.3599 153.117 73.4292 153.352 73.5679C153.597 73.6959 153.779 73.8399 153.896 73.9999L153.192 75.0559C153.085 74.8746 152.957 74.7626 152.808 74.7199C152.669 74.6666 152.536 74.6399 152.408 74.6399C152.173 74.6399 151.987 74.7466 151.848 74.9599C151.709 75.1732 151.64 75.5466 151.64 76.0799V78.6399H153.32V79.8399H151.64V85.9999H150.36V79.8399H149.64V78.6399ZM154.138 82.3199C154.138 81.5732 154.303 80.9119 154.634 80.3359C154.975 79.7599 155.434 79.3066 156.01 78.9759C156.586 78.6452 157.231 78.4799 157.946 78.4799C158.671 78.4799 159.317 78.6452 159.882 78.9759C160.458 79.3066 160.911 79.7599 161.242 80.3359C161.583 80.9119 161.754 81.5732 161.754 82.3199C161.754 83.0559 161.583 83.7172 161.242 84.3039C160.911 84.8799 160.458 85.3332 159.882 85.6639C159.317 85.9946 158.671 86.1599 157.946 86.1599C157.231 86.1599 156.586 85.9946 156.01 85.6639C155.434 85.3332 154.975 84.8799 154.634 84.3039C154.303 83.7172 154.138 83.0559 154.138 82.3199ZM155.434 82.3199C155.434 82.8319 155.541 83.2852 155.754 83.6799C155.978 84.0746 156.277 84.3892 156.65 84.6239C157.034 84.8479 157.466 84.9599 157.946 84.9599C158.426 84.9599 158.853 84.8479 159.226 84.6239C159.61 84.3892 159.909 84.0746 160.122 83.6799C160.346 83.2852 160.458 82.8319 160.458 82.3199C160.458 81.8079 160.346 81.3546 160.122 80.9599C159.909 80.5546 159.61 80.2399 159.226 80.0159C158.853 79.7919 158.426 79.6799 157.946 79.6799C157.466 79.6799 157.034 79.7919 156.65 80.0159C156.277 80.2399 155.978 80.5546 155.754 80.9599C155.541 81.3546 155.434 81.8079 155.434 82.3199ZM167.016 80.0479C166.846 79.9199 166.691 79.8292 166.553 79.7759C166.414 79.7119 166.238 79.6799 166.025 79.6799C165.545 79.6799 165.219 79.8559 165.049 80.2079C164.878 80.5492 164.793 80.9866 164.793 81.5199V85.9999H163.513V78.6399H164.793V79.4879C164.995 79.1786 165.235 78.9332 165.513 78.7519C165.79 78.5706 166.067 78.4799 166.345 78.4799C166.611 78.4799 166.857 78.5172 167.081 78.5919C167.315 78.6559 167.529 78.7892 167.721 78.9919L167.016 80.0479ZM175.746 81.8079L181.794 84.4799V85.7599L173.634 82.2399V81.5199L181.794 77.9999V79.2799L175.746 81.8079ZM188.108 83.4719L191.788 74.7999H193.308L188.108 86.5599L182.908 74.7999H184.428L188.108 83.4719ZM193.381 80.3359L192.757 79.3919C193.034 79.1892 193.413 78.9866 193.893 78.7839C194.384 78.5812 194.97 78.4799 195.653 78.4799C196.506 78.4799 197.2 78.6772 197.733 79.0719C198.266 79.4559 198.533 80.0052 198.533 80.7199V85.9999H197.253V85.0079C197.018 85.3919 196.666 85.6799 196.197 85.8719C195.728 86.0639 195.269 86.1599 194.821 86.1599C194.373 86.1599 193.952 86.0692 193.557 85.8879C193.173 85.6959 192.864 85.4239 192.629 85.0719C192.394 84.7199 192.277 84.2932 192.277 83.7919C192.277 83.0772 192.528 82.5066 193.029 82.0799C193.541 81.6426 194.25 81.4239 195.157 81.4239C195.648 81.4239 196.064 81.4826 196.405 81.5999C196.757 81.7066 197.04 81.8292 197.253 81.9679V80.8959C197.253 80.3946 197.088 80.0532 196.757 79.8719C196.437 79.6906 196.048 79.5999 195.589 79.5999C195.034 79.5999 194.57 79.6906 194.197 79.8719C193.824 80.0532 193.552 80.2079 193.381 80.3359ZM193.573 83.7279C193.573 84.1546 193.717 84.4852 194.005 84.7199C194.304 84.9439 194.688 85.0559 195.157 85.0559C195.744 85.0559 196.24 84.8799 196.645 84.5279C197.05 84.1759 197.253 83.7066 197.253 83.1199V82.8479C196.954 82.6986 196.65 82.5919 196.341 82.5279C196.032 82.4639 195.706 82.4319 195.365 82.4319C194.746 82.4319 194.293 82.5492 194.005 82.7839C193.717 83.0079 193.573 83.3226 193.573 83.7279ZM200.7 73.5199H201.98V85.9999H200.7V73.5199ZM204.388 75.5999C204.388 75.3546 204.473 75.1466 204.644 74.9759C204.825 74.8052 205.033 74.7199 205.268 74.7199C205.513 74.7199 205.721 74.8052 205.892 74.9759C206.062 75.1466 206.148 75.3546 206.148 75.5999C206.148 75.8346 206.062 76.0426 205.892 76.2239C205.721 76.3946 205.513 76.4799 205.268 76.4799C205.033 76.4799 204.825 76.3946 204.644 76.2239C204.473 76.0426 204.388 75.8346 204.388 75.5999ZM204.628 78.6399H205.908V85.9999H204.628V78.6399ZM207.904 82.3199C207.904 81.5199 208.069 80.8372 208.4 80.2719C208.73 79.6959 209.173 79.2532 209.728 78.9439C210.282 78.6346 210.89 78.4799 211.552 78.4799C212.096 78.4799 212.581 78.6026 213.008 78.8479C213.445 79.0932 213.797 79.4452 214.064 79.9039V73.5199H215.344V85.9999H214.064V84.7359C213.797 85.1946 213.445 85.5466 213.008 85.7919C212.581 86.0372 212.096 86.1599 211.552 86.1599C210.89 86.1599 210.282 86.0052 209.728 85.6959C209.173 85.3866 208.73 84.9439 208.4 84.3679C208.069 83.7919 207.904 83.1092 207.904 82.3199ZM209.2 82.3199C209.2 82.8852 209.312 83.3652 209.536 83.7599C209.77 84.1546 210.08 84.4532 210.464 84.6559C210.848 84.8586 211.264 84.9599 211.712 84.9599C212.085 84.9599 212.453 84.8586 212.816 84.6559C213.178 84.4532 213.477 84.1546 213.712 83.7599C213.946 83.3652 214.064 82.8852 214.064 82.3199C214.064 81.7546 213.946 81.2746 213.712 80.8799C213.477 80.4852 213.178 80.1866 212.816 79.9839C212.453 79.7812 212.085 79.6799 211.712 79.6799C211.264 79.6799 210.848 79.7812 210.464 79.9839C210.08 80.1866 209.77 80.4852 209.536 80.8799C209.312 81.2746 209.2 81.7546 209.2 82.3199ZM218.053 80.3359L217.429 79.3919C217.706 79.1892 218.085 78.9866 218.565 78.7839C219.055 78.5812 219.642 78.4799 220.325 78.4799C221.178 78.4799 221.871 78.6772 222.405 79.0719C222.938 79.4559 223.205 80.0052 223.205 80.7199V85.9999H221.925V85.0079C221.69 85.3919 221.338 85.6799 220.869 85.8719C220.399 86.0639 219.941 86.1599 219.493 86.1599C219.045 86.1599 218.623 86.0692 218.229 85.8879C217.845 85.6959 217.535 85.4239 217.301 85.0719C217.066 84.7199 216.949 84.2932 216.949 83.7919C216.949 83.0772 217.199 82.5066 217.701 82.0799C218.213 81.6426 218.922 81.4239 219.829 81.4239C220.319 81.4239 220.735 81.4826 221.077 81.5999C221.429 81.7066 221.711 81.8292 221.925 81.9679V80.8959C221.925 80.3946 221.759 80.0532 221.429 79.8719C221.109 79.6906 220.719 79.5999 220.261 79.5999C219.706 79.5999 219.242 79.6906 218.869 79.8719C218.495 80.0532 218.223 80.2079 218.053 80.3359ZM218.245 83.7279C218.245 84.1546 218.389 84.4852 218.677 84.7199C218.975 84.9439 219.359 85.0559 219.829 85.0559C220.415 85.0559 220.911 84.8799 221.317 84.5279C221.722 84.1759 221.925 83.7066 221.925 83.1199V82.8479C221.626 82.6986 221.322 82.5919 221.013 82.5279C220.703 82.4639 220.378 82.4319 220.037 82.4319C219.418 82.4319 218.965 82.5492 218.677 82.7839C218.389 83.0079 218.245 83.3226 218.245 83.7279ZM224.252 78.6399H225.452V76.0799H226.732V78.6399H227.932V79.8399H226.732V85.9999H225.452V79.8399H224.252V78.6399ZM228.576 82.3199C228.576 81.5732 228.741 80.9119 229.072 80.3359C229.413 79.7599 229.872 79.3066 230.448 78.9759C231.024 78.6452 231.669 78.4799 232.384 78.4799C233.109 78.4799 233.754 78.6452 234.32 78.9759C234.896 79.3066 235.349 79.7599 235.68 80.3359C236.021 80.9119 236.192 81.5732 236.192 82.3199C236.192 83.0559 236.021 83.7172 235.68 84.3039C235.349 84.8799 234.896 85.3332 234.32 85.6639C233.754 85.9946 233.109 86.1599 232.384 86.1599C231.669 86.1599 231.024 85.9946 230.448 85.6639C229.872 85.3332 229.413 84.8799 229.072 84.3039C228.741 83.7172 228.576 83.0559 228.576 82.3199ZM229.872 82.3199C229.872 82.8319 229.978 83.2852 230.192 83.6799C230.416 84.0746 230.714 84.3892 231.088 84.6239C231.472 84.8479 231.904 84.9599 232.384 84.9599C232.864 84.9599 233.29 84.8479 233.664 84.6239C234.048 84.3892 234.346 84.0746 234.56 83.6799C234.784 83.2852 234.896 82.8319 234.896 82.3199C234.896 81.8079 234.784 81.3546 234.56 80.9599C234.346 80.5546 234.048 80.2399 233.664 80.0159C233.29 79.7919 232.864 79.6799 232.384 79.6799C231.904 79.6799 231.472 79.7919 231.088 80.0159C230.714 80.2399 230.416 80.5546 230.192 80.9599C229.978 81.3546 229.872 81.8079 229.872 82.3199ZM241.454 80.0479C241.283 79.9199 241.129 79.8292 240.99 79.7759C240.851 79.7119 240.675 79.6799 240.462 79.6799C239.982 79.6799 239.657 79.8559 239.486 80.2079C239.315 80.5492 239.23 80.9866 239.23 81.5199V85.9999H237.95V78.6399H239.23V79.4879C239.433 79.1786 239.673 78.9332 239.95 78.7519C240.227 78.5706 240.505 78.4799 240.782 78.4799C241.049 78.4799 241.294 78.5172 241.518 78.5919C241.753 78.6559 241.966 78.7892 242.158 78.9919L241.454 80.0479ZM242.314 82.7999V81.5999H245.514V82.7999H242.314ZM252.074 81.5999V80.3199H257.274C257.274 81.0986 257.156 81.8399 256.922 82.5439C256.687 83.2372 256.34 83.8559 255.882 84.3999C255.423 84.9439 254.858 85.3759 254.186 85.6959C253.524 86.0052 252.767 86.1599 251.914 86.1599C251.103 86.1599 250.351 86.0212 249.658 85.7439C248.964 85.4559 248.362 85.0559 247.85 84.5439C247.338 84.0212 246.938 83.4079 246.65 82.7039C246.372 81.9999 246.234 81.2319 246.234 80.3999C246.234 79.5679 246.372 78.7999 246.65 78.0959C246.938 77.3919 247.338 76.7839 247.85 76.2719C248.362 75.7492 248.964 75.3492 249.658 75.0719C250.351 74.7839 251.103 74.6399 251.914 74.6399C252.948 74.6399 253.86 74.8426 254.65 75.2479C255.45 75.6532 256.09 76.2452 256.57 77.0239L255.61 77.9039C255.258 77.3066 254.767 76.8426 254.138 76.5119C253.508 76.1706 252.767 75.9999 251.914 75.9999C251.124 75.9999 250.41 76.1866 249.77 76.5599C249.13 76.9332 248.618 77.4506 248.234 78.1119C247.86 78.7626 247.674 79.5252 247.674 80.3999C247.674 81.2639 247.86 82.0266 248.234 82.6879C248.618 83.3492 249.13 83.8666 249.77 84.2399C250.41 84.6132 251.124 84.7999 251.914 84.7999C252.66 84.7999 253.3 84.6559 253.834 84.3679C254.367 84.0692 254.799 83.6799 255.13 83.1999C255.46 82.7092 255.684 82.1759 255.802 81.5999H252.074ZM262.704 80.0479C262.533 79.9199 262.379 79.8292 262.24 79.7759C262.101 79.7119 261.925 79.6799 261.712 79.6799C261.232 79.6799 260.907 79.8559 260.736 80.2079C260.565 80.5492 260.48 80.9866 260.48 81.5199V85.9999H259.2V78.6399H260.48V79.4879C260.683 79.1786 260.923 78.9332 261.2 78.7519C261.477 78.5706 261.755 78.4799 262.032 78.4799C262.299 78.4799 262.544 78.5172 262.768 78.5919C263.003 78.6559 263.216 78.7892 263.408 78.9919L262.704 80.0479ZM263.81 82.3199C263.81 81.5732 263.975 80.9119 264.306 80.3359C264.647 79.7599 265.106 79.3066 265.682 78.9759C266.258 78.6452 266.903 78.4799 267.618 78.4799C268.343 78.4799 268.989 78.6452 269.554 78.9759C270.13 79.3066 270.583 79.7599 270.914 80.3359C271.255 80.9119 271.426 81.5732 271.426 82.3199C271.426 83.0559 271.255 83.7172 270.914 84.3039C270.583 84.8799 270.13 85.3332 269.554 85.6639C268.989 85.9946 268.343 86.1599 267.618 86.1599C266.903 86.1599 266.258 85.9946 265.682 85.6639C265.106 85.3332 264.647 84.8799 264.306 84.3039C263.975 83.7172 263.81 83.0559 263.81 82.3199ZM265.106 82.3199C265.106 82.8319 265.213 83.2852 265.426 83.6799C265.65 84.0746 265.949 84.3892 266.322 84.6239C266.706 84.8479 267.138 84.9599 267.618 84.9599C268.098 84.9599 268.525 84.8479 268.898 84.6239C269.282 84.3892 269.581 84.0746 269.794 83.6799C270.018 83.2852 270.13 82.8319 270.13 82.3199C270.13 81.8079 270.018 81.3546 269.794 80.9599C269.581 80.5546 269.282 80.2399 268.898 80.0159C268.525 79.7919 268.098 79.6799 267.618 79.6799C267.138 79.6799 266.706 79.7919 266.322 80.0159C265.949 80.2399 265.65 80.5546 265.426 80.9599C265.213 81.3546 265.106 81.8079 265.106 82.3199ZM274.464 83.1199C274.464 83.7066 274.598 84.1599 274.864 84.4799C275.131 84.7999 275.52 84.9599 276.032 84.9599C276.598 84.9599 277.051 84.7892 277.392 84.4479C277.734 84.1066 277.904 83.6639 277.904 83.1199V78.6399H279.184V85.9999H277.904V84.8479C277.414 85.7226 276.683 86.1599 275.712 86.1599C274.944 86.1599 274.331 85.8986 273.872 85.3759C273.414 84.8532 273.184 84.1546 273.184 83.2799V78.6399H274.464V83.1199ZM282.791 89.5199H281.511V78.6399H282.791V79.9039C283.057 79.4452 283.404 79.0932 283.831 78.8479C284.268 78.6026 284.759 78.4799 285.303 78.4799C285.975 78.4799 286.583 78.6346 287.127 78.9439C287.681 79.2532 288.124 79.6959 288.455 80.2719C288.785 80.8372 288.951 81.5199 288.951 82.3199C288.951 83.1092 288.785 83.7919 288.455 84.3679C288.124 84.9439 287.681 85.3866 287.127 85.6959C286.583 86.0052 285.975 86.1599 285.303 86.1599C284.759 86.1599 284.268 86.0372 283.831 85.7919C283.404 85.5466 283.057 85.1946 282.791 84.7359V89.5199ZM287.655 82.3199C287.655 81.7546 287.537 81.2746 287.303 80.8799C287.079 80.4852 286.775 80.1866 286.391 79.9839C286.017 79.7812 285.601 79.6799 285.143 79.6799C284.769 79.6799 284.401 79.7812 284.039 79.9839C283.676 80.1866 283.377 80.4852 283.143 80.8799C282.908 81.2746 282.791 81.7546 282.791 82.3199C282.791 82.8852 282.908 83.3652 283.143 83.7599C283.377 84.1546 283.676 84.4532 284.039 84.6559C284.401 84.8586 284.769 84.9599 285.143 84.9599C285.601 84.9599 286.017 84.8586 286.391 84.6559C286.775 84.4532 287.079 84.1546 287.303 83.7599C287.537 83.3652 287.655 82.8852 287.655 82.3199ZM296.604 81.9519L290.556 79.2799V77.9999L298.716 81.5199V82.2399L290.556 85.7599V84.4799L296.604 81.9519ZM313.491 85.9999L312.387 84.7359C311.875 85.1626 311.32 85.5092 310.723 85.7759C310.136 86.0319 309.491 86.1599 308.787 86.1599C308.179 86.1599 307.598 86.0372 307.043 85.7919C306.499 85.5359 306.051 85.1786 305.699 84.7199C305.358 84.2506 305.187 83.7012 305.187 83.0719C305.187 82.5919 305.272 82.1706 305.443 81.8079C305.624 81.4452 305.854 81.1306 306.131 80.8639C306.408 80.5972 306.707 80.3679 307.027 80.1759C307.347 79.9839 307.651 79.8132 307.939 79.6639C307.747 79.4719 307.534 79.2479 307.299 78.9919C307.064 78.7252 306.856 78.4372 306.675 78.1279C306.504 77.8186 306.419 77.4772 306.419 77.1039C306.419 76.3466 306.675 75.7439 307.187 75.2959C307.699 74.8479 308.355 74.6239 309.155 74.6239C309.72 74.6239 310.2 74.7412 310.595 74.9759C311 75.2106 311.31 75.5199 311.523 75.9039C311.736 76.2772 311.843 76.6879 311.843 77.1359C311.843 77.6372 311.656 78.1226 311.283 78.5919C310.92 79.0612 310.408 79.5039 309.747 79.9199L312.451 83.0399C312.76 82.7306 313.059 82.3999 313.347 82.0479C313.635 81.6852 313.912 81.3172 314.179 80.9439L315.171 81.5679C314.862 81.9732 314.547 82.3786 314.227 82.7839C313.907 83.1892 313.576 83.5732 313.235 83.9359L315.027 85.9999H313.491ZM307.763 77.1039C307.763 77.4559 307.891 77.7919 308.147 78.1119C308.414 78.4212 308.702 78.7466 309.011 79.0879C309.491 78.7786 309.864 78.4586 310.131 78.1279C310.408 77.7866 310.547 77.4559 310.547 77.1359C310.547 76.7306 310.424 76.3999 310.179 76.1439C309.934 75.8879 309.592 75.7599 309.155 75.7599C308.718 75.7599 308.376 75.8826 308.131 76.1279C307.886 76.3732 307.763 76.6986 307.763 77.1039ZM306.547 82.9919C306.547 83.5999 306.771 84.0852 307.219 84.4479C307.678 84.7999 308.227 84.9759 308.867 84.9759C309.358 84.9759 309.827 84.8746 310.275 84.6719C310.734 84.4586 311.176 84.1812 311.603 83.8399L308.691 80.5119C308.35 80.7039 308.014 80.9119 307.683 81.1359C307.352 81.3492 307.08 81.6106 306.867 81.9199C306.654 82.2186 306.547 82.5759 306.547 82.9919ZM320.829 86.4959H322.557C322.578 86.9866 322.77 87.3972 323.133 87.7279C323.506 88.0692 324.002 88.2399 324.621 88.2399C324.983 88.2399 325.33 88.1546 325.661 87.9839C325.991 87.8132 326.258 87.5519 326.461 87.1999C326.674 86.8479 326.781 86.3946 326.781 85.8399V84.7359C326.205 85.6319 325.367 86.0799 324.269 86.0799C323.629 86.0799 323.037 85.9306 322.493 85.6319C321.949 85.3332 321.511 84.9012 321.181 84.3359C320.85 83.7706 320.685 83.0879 320.685 82.2879C320.685 81.4772 320.85 80.7892 321.181 80.2239C321.511 79.6586 321.949 79.2266 322.493 78.9279C323.037 78.6292 323.629 78.4799 324.269 78.4799C325.367 78.4799 326.205 78.9332 326.781 79.8399V78.6399H328.477V85.8399C328.477 86.7252 328.295 87.4559 327.933 88.0319C327.581 88.6186 327.117 89.0506 326.541 89.3279C325.965 89.6052 325.341 89.7439 324.669 89.7439C323.474 89.7439 322.541 89.4399 321.869 88.8319C321.207 88.2346 320.861 87.4559 320.829 86.4959ZM322.477 82.2879C322.477 83.0239 322.695 83.5892 323.133 83.9839C323.57 84.3786 324.087 84.5759 324.685 84.5759C325.015 84.5759 325.341 84.4906 325.661 84.3199C325.981 84.1492 326.247 83.8932 326.461 83.5519C326.674 83.2106 326.781 82.7892 326.781 82.2879C326.781 81.7866 326.674 81.3652 326.461 81.0239C326.247 80.6826 325.981 80.4266 325.661 80.2559C325.341 80.0746 325.015 79.9839 324.685 79.9839C324.087 79.9839 323.57 80.1866 323.133 80.5919C322.695 80.9866 322.477 81.5519 322.477 82.2879ZM333.82 86.1599C333.062 86.1599 332.401 85.9999 331.836 85.6799C331.27 85.3599 330.833 84.9119 330.524 84.3359C330.214 83.7599 330.06 83.0879 330.06 82.3199C330.06 81.5412 330.214 80.8692 330.524 80.3039C330.844 79.7279 331.292 79.2799 331.868 78.9599C332.444 78.6399 333.121 78.4799 333.9 78.4799C335.062 78.4799 335.964 78.8159 336.604 79.4879C337.254 80.1492 337.58 81.0666 337.58 82.2399C337.58 82.3359 337.574 82.4319 337.564 82.5279C337.564 82.6132 337.564 82.6772 337.564 82.7199H331.836C331.9 83.3599 332.108 83.8559 332.46 84.2079C332.822 84.5599 333.302 84.7359 333.9 84.7359C334.838 84.7359 335.542 84.3466 336.012 83.5679L337.516 84.1599C336.748 85.4932 335.516 86.1599 333.82 86.1599ZM333.884 79.7919C332.764 79.7919 332.097 80.3679 331.884 81.5199H335.692C335.66 80.9972 335.478 80.5812 335.148 80.2719C334.817 79.9519 334.396 79.7919 333.884 79.7919ZM338.205 78.6399H339.437V76.0799H341.149V78.6399H342.381V80.1599H341.149V85.9999H339.437V80.1599H338.205V78.6399ZM352.562 74.8159H354.962L351.746 78.7999C351.916 78.7146 352.098 78.6612 352.29 78.6399C352.482 78.6079 352.69 78.5919 352.914 78.5919C353.5 78.5919 354.05 78.7466 354.562 79.0559C355.074 79.3652 355.49 79.7919 355.81 80.3359C356.13 80.8799 356.29 81.5092 356.29 82.2239C356.29 83.0452 356.108 83.7546 355.746 84.3519C355.383 84.9492 354.887 85.4079 354.258 85.7279C353.639 86.0372 352.946 86.1919 352.178 86.1919C351.41 86.1919 350.711 86.0372 350.082 85.7279C349.463 85.4079 348.972 84.9492 348.61 84.3519C348.247 83.7546 348.066 83.0452 348.066 82.2239C348.066 81.7012 348.151 81.2212 348.322 80.7839C348.503 80.3466 348.732 79.9466 349.01 79.5839L352.562 74.8159ZM349.906 82.2239C349.906 82.9066 350.119 83.4666 350.546 83.9039C350.983 84.3306 351.527 84.5439 352.178 84.5439C352.828 84.5439 353.367 84.3306 353.794 83.9039C354.22 83.4666 354.434 82.9066 354.434 82.2239C354.434 81.5306 354.22 80.9652 353.794 80.5279C353.367 80.0906 352.828 79.8719 352.178 79.8719C351.751 79.8719 351.362 79.9732 351.01 80.1759C350.668 80.3786 350.396 80.6559 350.194 81.0079C350.002 81.3599 349.906 81.7652 349.906 82.2239ZM358.422 85.1839C358.422 84.8746 358.529 84.6132 358.742 84.3999C358.955 84.1759 359.222 84.0639 359.542 84.0639C359.862 84.0639 360.129 84.1759 360.342 84.3999C360.566 84.6132 360.678 84.8746 360.678 85.1839C360.678 85.4826 360.566 85.7439 360.342 85.9679C360.129 86.1919 359.862 86.3039 359.542 86.3039C359.222 86.3039 358.955 86.1919 358.742 85.9679C358.529 85.7439 358.422 85.4826 358.422 85.1839ZM363.2 77.4239V75.6319L367.664 74.6239V85.9999H365.792V76.7039L363.2 77.4239ZM369.883 85.9999L375.051 80.5439C375.456 80.1172 375.771 79.7119 375.995 79.3279C376.219 78.9332 376.331 78.5119 376.331 78.0639C376.331 77.7652 376.256 77.4826 376.107 77.2159C375.968 76.9492 375.755 76.7306 375.467 76.5599C375.189 76.3892 374.843 76.3039 374.427 76.3039C373.787 76.3039 373.28 76.5279 372.907 76.9759C372.544 77.4132 372.363 78.0106 372.363 78.7679H370.491C370.491 77.9679 370.64 77.2586 370.939 76.6399C371.248 76.0106 371.696 75.5146 372.283 75.1519C372.88 74.7892 373.605 74.6079 374.459 74.6079C375.109 74.6079 375.675 74.7146 376.155 74.9279C376.635 75.1306 377.029 75.4026 377.339 75.7439C377.659 76.0746 377.893 76.4372 378.043 76.8319C378.203 77.2159 378.283 77.5946 378.283 77.9679C378.283 78.5546 378.139 79.1199 377.851 79.6639C377.573 80.1972 377.205 80.6826 376.747 81.1199L373.579 84.2399H378.427V85.9999H369.883ZM379.683 77.2959C379.683 76.7946 379.8 76.3412 380.035 75.9359C380.27 75.5199 380.59 75.1892 380.995 74.9439C381.411 74.6986 381.886 74.5759 382.419 74.5759C382.952 74.5759 383.422 74.6986 383.827 74.9439C384.243 75.1892 384.563 75.5199 384.787 75.9359C385.022 76.3412 385.139 76.7946 385.139 77.2959C385.139 77.7972 385.022 78.2559 384.787 78.6719C384.563 79.0772 384.243 79.4026 383.827 79.6479C383.422 79.8932 382.952 80.0159 382.419 80.0159C381.886 80.0159 381.411 79.8932 380.995 79.6479C380.59 79.4026 380.27 79.0772 380.035 78.6719C379.8 78.2559 379.683 77.7972 379.683 77.2959ZM388.771 74.7999H390.499L382.723 85.9999H381.011L388.771 74.7999ZM381.155 77.2959C381.155 77.6586 381.267 77.9732 381.491 78.2399C381.726 78.5066 382.035 78.6399 382.419 78.6399C382.803 78.6399 383.102 78.5066 383.315 78.2399C383.539 77.9732 383.651 77.6586 383.651 77.2959C383.651 76.9332 383.539 76.6239 383.315 76.3679C383.102 76.1012 382.803 75.9679 382.419 75.9679C382.035 75.9679 381.726 76.1012 381.491 76.3679C381.267 76.6239 381.155 76.9332 381.155 77.2959ZM386.371 83.5039C386.371 83.0026 386.483 82.5492 386.707 82.1439C386.942 81.7279 387.262 81.3972 387.667 81.1519C388.083 80.9066 388.558 80.7839 389.091 80.7839C389.624 80.7839 390.094 80.9066 390.499 81.1519C390.915 81.3972 391.235 81.7279 391.459 82.1439C391.694 82.5492 391.811 83.0026 391.811 83.5039C391.811 84.0052 391.694 84.4639 391.459 84.8799C391.235 85.2852 390.915 85.6106 390.499 85.8559C390.094 86.1012 389.624 86.2239 389.091 86.2239C388.558 86.2239 388.083 86.1012 387.667 85.8559C387.262 85.6106 386.942 85.2852 386.707 84.8799C386.483 84.4639 386.371 84.0052 386.371 83.5039ZM387.843 83.5039C387.843 83.8666 387.955 84.1812 388.179 84.4479C388.403 84.7039 388.707 84.8319 389.091 84.8319C389.475 84.8319 389.779 84.7039 390.003 84.4479C390.227 84.1812 390.339 83.8666 390.339 83.5039C390.339 83.1412 390.227 82.8266 390.003 82.5599C389.779 82.2932 389.475 82.1599 389.091 82.1599C388.707 82.1599 388.403 82.2932 388.179 82.5599C387.955 82.8266 387.843 83.1412 387.843 83.5039ZM405.958 85.9999L404.678 83.1199H400.55L399.27 85.9999H397.142L402.614 74.1759L408.086 85.9999H405.958ZM402.614 77.9679L401.094 81.5199H404.134L402.614 77.9679ZM409.389 74.7999H412.765C413.586 74.7999 414.295 74.9439 414.893 75.2319C415.49 75.5092 415.954 75.9092 416.285 76.4319C416.615 76.9546 416.781 77.5732 416.781 78.2879C416.781 79.3546 416.418 80.2026 415.693 80.8319C414.967 81.4506 413.991 81.7599 412.765 81.7599H411.277V85.9999H409.389V74.7999ZM412.765 76.4639H411.277V80.0959H412.765C413.415 80.0959 413.938 79.9466 414.333 79.6479C414.727 79.3386 414.925 78.8852 414.925 78.2879C414.925 77.6906 414.727 77.2372 414.333 76.9279C413.938 76.6186 413.415 76.4639 412.765 76.4639ZM424.314 74.7999H426.474L422.682 81.2799V85.9999H420.746V81.2959L416.954 74.7999H419.114L421.706 79.5999L424.314 74.7999ZM428.1 74.7999H429.7L429.38 82.7999H428.42L428.1 74.7999ZM428.02 85.3599C428.02 85.1146 428.105 84.9066 428.276 84.7359C428.457 84.5652 428.665 84.4799 428.9 84.4799C429.145 84.4799 429.353 84.5652 429.524 84.7359C429.695 84.9066 429.78 85.1146 429.78 85.3599C429.78 85.5946 429.695 85.8026 429.524 85.9839C429.353 86.1546 429.145 86.2399 428.9 86.2399C428.665 86.2399 428.457 86.1546 428.276 85.9839C428.105 85.8026 428.02 85.5946 428.02 85.3599Z" fill="#505050"/>
<g filter="url(#filter0_d_314_10)">
<path d="M40 119C40 115.686 42.6863 113 46 113H466C469.314 113 472 115.686 472 119V153C472 156.314 469.314 159 466 159H46C42.6863 159 40 156.314 40 153V119Z" fill="#35D07F"/>
<path d="M142 135.591L148.575 131.796L142 128L135.424 131.796L142 135.591Z" fill="white"/>
<path d="M141.53 136.406L134.954 132.611V140.204L141.53 144V136.406Z" fill="white"/>
<path d="M142.47 136.406V144L149.046 140.204V132.611L142.47 136.406Z" fill="white"/>
<path d="M166.639 138.256L170.347 129.4H172.795L166.639 142.702L160.483 129.4H162.931L166.639 138.256ZM172.027 137.86C172.027 137.008 172.219 136.258 172.603 135.61C172.999 134.962 173.533 134.458 174.205 134.098C174.889 133.726 175.651 133.54 176.491 133.54C177.343 133.54 178.105 133.726 178.777 134.098C179.449 134.458 179.977 134.962 180.361 135.61C180.757 136.258 180.955 137.008 180.955 137.86C180.955 138.7 180.757 139.45 180.361 140.11C179.977 140.758 179.449 141.268 178.777 141.64C178.105 142 177.343 142.18 176.491 142.18C175.651 142.18 174.889 142 174.205 141.64C173.533 141.268 172.999 140.758 172.603 140.11C172.219 139.45 172.027 138.7 172.027 137.86ZM174.025 137.86C174.025 138.628 174.259 139.258 174.727 139.75C175.207 140.23 175.795 140.47 176.491 140.47C177.199 140.47 177.787 140.23 178.255 139.75C178.723 139.258 178.957 138.628 178.957 137.86C178.957 137.08 178.723 136.45 178.255 135.97C177.787 135.49 177.199 135.25 176.491 135.25C175.795 135.25 175.207 135.49 174.727 135.97C174.259 136.45 174.025 137.08 174.025 137.86ZM181.648 133.72H183.034V130.84H184.96V133.72H186.346V135.43H184.96V142H183.034V135.43H181.648V133.72ZM191.286 142.18C190.434 142.18 189.69 142 189.054 141.64C188.418 141.28 187.926 140.776 187.578 140.128C187.23 139.48 187.056 138.724 187.056 137.86C187.056 136.984 187.23 136.228 187.578 135.592C187.938 134.944 188.442 134.44 189.09 134.08C189.738 133.72 190.5 133.54 191.376 133.54C192.684 133.54 193.698 133.918 194.418 134.674C195.15 135.418 195.516 136.45 195.516 137.77C195.516 137.878 195.51 137.986 195.498 138.094C195.498 138.19 195.498 138.262 195.498 138.31H189.054C189.126 139.03 189.36 139.588 189.756 139.984C190.164 140.38 190.704 140.578 191.376 140.578C192.432 140.578 193.224 140.14 193.752 139.264L195.444 139.93C194.58 141.43 193.194 142.18 191.286 142.18ZM191.358 135.016C190.098 135.016 189.348 135.664 189.108 136.96H193.392C193.356 136.372 193.152 135.904 192.78 135.556C192.408 135.196 191.934 135.016 191.358 135.016ZM202.084 133.72H202.984V130.66C202.984 129.7 203.212 128.974 203.668 128.482C204.136 127.99 204.802 127.744 205.666 127.744C206.146 127.744 206.536 127.834 206.836 128.014C207.148 128.182 207.382 128.356 207.538 128.536L206.638 130.048C206.518 129.856 206.38 129.73 206.224 129.67C206.068 129.61 205.912 129.58 205.756 129.58C205.492 129.58 205.282 129.694 205.126 129.922C204.97 130.138 204.892 130.51 204.892 131.038V133.72H206.836V135.43H204.892V142H202.984V135.43H202.084V133.72ZM207.693 137.86C207.693 137.008 207.885 136.258 208.269 135.61C208.665 134.962 209.199 134.458 209.871 134.098C210.555 133.726 211.317 133.54 212.157 133.54C213.009 133.54 213.771 133.726 214.443 134.098C215.115 134.458 215.643 134.962 216.027 135.61C216.423 136.258 216.621 137.008 216.621 137.86C216.621 138.7 216.423 139.45 216.027 140.11C215.643 140.758 215.115 141.268 214.443 141.64C213.771 142 213.009 142.18 212.157 142.18C211.317 142.18 210.555 142 209.871 141.64C209.199 141.268 208.665 140.758 208.269 140.11C207.885 139.45 207.693 138.7 207.693 137.86ZM209.691 137.86C209.691 138.628 209.925 139.258 210.393 139.75C210.873 140.23 211.461 140.47 212.157 140.47C212.865 140.47 213.453 140.23 213.921 139.75C214.389 139.258 214.623 138.628 214.623 137.86C214.623 137.08 214.389 136.45 213.921 135.97C213.453 135.49 212.865 135.25 212.157 135.25C211.461 135.25 210.873 135.49 210.393 135.97C209.925 136.45 209.691 137.08 209.691 137.86ZM222.858 135.808C222.678 135.664 222.51 135.556 222.354 135.484C222.198 135.4 222 135.358 221.76 135.358C221.28 135.358 220.932 135.538 220.716 135.898C220.5 136.258 220.392 136.738 220.392 137.338V142H218.466V133.72H220.392V134.728C220.632 134.356 220.92 134.068 221.256 133.864C221.592 133.648 221.934 133.54 222.282 133.54C222.582 133.54 222.864 133.588 223.128 133.684C223.392 133.78 223.62 133.936 223.812 134.152L222.858 135.808ZM233.44 137.248L239.632 139.912V141.838L230.452 137.932V136.708L239.632 132.802V134.728L233.44 137.248ZM247.006 138.256L250.714 129.4H253.162L247.006 142.702L240.85 129.4H243.298L247.006 138.256ZM253.285 135.88L252.493 134.512C252.877 134.284 253.363 134.062 253.951 133.846C254.539 133.63 255.217 133.522 255.985 133.522C257.005 133.522 257.839 133.75 258.487 134.206C259.147 134.65 259.477 135.28 259.477 136.096V142H257.569V140.866C257.305 141.31 256.915 141.64 256.399 141.856C255.883 142.072 255.361 142.18 254.833 142.18C254.317 142.18 253.837 142.078 253.393 141.874C252.949 141.67 252.595 141.37 252.331 140.974C252.067 140.578 251.935 140.098 251.935 139.534C251.935 138.73 252.217 138.094 252.781 137.626C253.357 137.146 254.155 136.906 255.175 136.906C255.715 136.906 256.183 136.966 256.579 137.086C256.975 137.206 257.305 137.338 257.569 137.482V136.474C257.569 135.97 257.401 135.616 257.065 135.412C256.741 135.208 256.321 135.106 255.805 135.106C255.217 135.106 254.695 135.202 254.239 135.394C253.783 135.586 253.465 135.748 253.285 135.88ZM253.897 139.426C253.897 139.834 254.041 140.152 254.329 140.38C254.629 140.608 255.001 140.722 255.445 140.722C256.021 140.722 256.519 140.548 256.939 140.2C257.359 139.84 257.569 139.348 257.569 138.724V138.598C256.993 138.322 256.351 138.184 255.643 138.184C255.031 138.184 254.587 138.298 254.311 138.526C254.035 138.742 253.897 139.042 253.897 139.426ZM261.743 127.96H263.687V142H261.743V127.96ZM266.101 130.426C266.101 130.09 266.221 129.808 266.461 129.58C266.701 129.352 266.989 129.238 267.325 129.238C267.673 129.238 267.961 129.352 268.189 129.58C268.429 129.808 268.549 130.09 268.549 130.426C268.549 130.762 268.429 131.044 268.189 131.272C267.961 131.5 267.673 131.614 267.325 131.614C266.989 131.614 266.701 131.5 266.461 131.272C266.221 131.044 266.101 130.762 266.101 130.426ZM266.371 133.72H268.279V142H266.371V133.72ZM270.324 137.86C270.324 136.948 270.51 136.174 270.882 135.538C271.254 134.89 271.746 134.398 272.358 134.062C272.97 133.714 273.636 133.54 274.356 133.54C275.592 133.54 276.534 134.056 277.182 135.088V127.96H279.144V142H277.182V140.632C276.534 141.664 275.592 142.18 274.356 142.18C273.636 142.18 272.97 142.012 272.358 141.676C271.746 141.328 271.254 140.83 270.882 140.182C270.51 139.534 270.324 138.76 270.324 137.86ZM272.34 137.86C272.34 138.688 272.586 139.336 273.078 139.804C273.57 140.26 274.152 140.488 274.824 140.488C275.196 140.488 275.562 140.386 275.922 140.182C276.282 139.978 276.582 139.684 276.822 139.3C277.062 138.904 277.182 138.424 277.182 137.86C277.182 137.296 277.062 136.822 276.822 136.438C276.582 136.042 276.282 135.742 275.922 135.538C275.562 135.334 275.196 135.232 274.824 135.232C274.152 135.232 273.57 135.466 273.078 135.934C272.586 136.39 272.34 137.032 272.34 137.86ZM282.148 135.88L281.356 134.512C281.74 134.284 282.226 134.062 282.814 133.846C283.402 133.63 284.08 133.522 284.848 133.522C285.868 133.522 286.702 133.75 287.35 134.206C288.01 134.65 288.34 135.28 288.34 136.096V142H286.432V140.866C286.168 141.31 285.778 141.64 285.262 141.856C284.746 142.072 284.224 142.18 283.696 142.18C283.18 142.18 282.7 142.078 282.256 141.874C281.812 141.67 281.458 141.37 281.194 140.974C280.93 140.578 280.798 140.098 280.798 139.534C280.798 138.73 281.08 138.094 281.644 137.626C282.22 137.146 283.018 136.906 284.038 136.906C284.578 136.906 285.046 136.966 285.442 137.086C285.838 137.206 286.168 137.338 286.432 137.482V136.474C286.432 135.97 286.264 135.616 285.928 135.412C285.604 135.208 285.184 135.106 284.668 135.106C284.08 135.106 283.558 135.202 283.102 135.394C282.646 135.586 282.328 135.748 282.148 135.88ZM282.76 139.426C282.76 139.834 282.904 140.152 283.192 140.38C283.492 140.608 283.864 140.722 284.308 140.722C284.884 140.722 285.382 140.548 285.802 140.2C286.222 139.84 286.432 139.348 286.432 138.724V138.598C285.856 138.322 285.214 138.184 284.506 138.184C283.894 138.184 283.45 138.298 283.174 138.526C282.898 138.742 282.76 139.042 282.76 139.426ZM289.454 133.72H290.84V130.84H292.766V133.72H294.152V135.43H292.766V142H290.84V135.43H289.454V133.72ZM294.863 137.86C294.863 137.008 295.055 136.258 295.439 135.61C295.835 134.962 296.369 134.458 297.041 134.098C297.725 133.726 298.487 133.54 299.327 133.54C300.179 133.54 300.941 133.726 301.613 134.098C302.285 134.458 302.813 134.962 303.197 135.61C303.593 136.258 303.791 137.008 303.791 137.86C303.791 138.7 303.593 139.45 303.197 140.11C302.813 140.758 302.285 141.268 301.613 141.64C300.941 142 300.179 142.18 299.327 142.18C298.487 142.18 297.725 142 297.041 141.64C296.369 141.268 295.835 140.758 295.439 140.11C295.055 139.45 294.863 138.7 294.863 137.86ZM296.861 137.86C296.861 138.628 297.095 139.258 297.563 139.75C298.043 140.23 298.631 140.47 299.327 140.47C300.035 140.47 300.623 140.23 301.091 139.75C301.559 139.258 301.793 138.628 301.793 137.86C301.793 137.08 301.559 136.45 301.091 135.97C300.623 135.49 300.035 135.25 299.327 135.25C298.631 135.25 298.043 135.49 297.563 135.97C297.095 136.45 296.861 137.08 296.861 137.86ZM310.028 135.808C309.848 135.664 309.68 135.556 309.524 135.484C309.368 135.4 309.17 135.358 308.93 135.358C308.45 135.358 308.102 135.538 307.886 135.898C307.67 136.258 307.562 136.738 307.562 137.338V142H305.636V133.72H307.562V134.728C307.802 134.356 308.09 134.068 308.426 133.864C308.762 133.648 309.104 133.54 309.452 133.54C309.752 133.54 310.034 133.588 310.298 133.684C310.562 133.78 310.79 133.936 310.982 134.152L310.028 135.808ZM311.146 138.598V136.852H314.836V138.598H311.146ZM322.303 137.212V135.412H328.369C328.393 136.336 328.273 137.212 328.009 138.04C327.745 138.856 327.349 139.582 326.821 140.218C326.293 140.854 325.639 141.358 324.859 141.73C324.079 142.09 323.185 142.27 322.177 142.27C321.229 142.27 320.353 142.114 319.549 141.802C318.745 141.478 318.043 141.022 317.443 140.434C316.855 139.846 316.399 139.15 316.075 138.346C315.751 137.542 315.589 136.66 315.589 135.7C315.589 134.74 315.751 133.864 316.075 133.072C316.411 132.268 316.873 131.578 317.461 131.002C318.061 130.426 318.763 129.982 319.567 129.67C320.383 129.346 321.265 129.184 322.213 129.184C323.449 129.184 324.523 129.43 325.435 129.922C326.347 130.414 327.079 131.098 327.631 131.974L325.903 133.144C325.555 132.544 325.069 132.064 324.445 131.704C323.833 131.332 323.089 131.146 322.213 131.146C321.397 131.146 320.653 131.338 319.981 131.722C319.321 132.094 318.793 132.622 318.397 133.306C318.013 133.978 317.821 134.776 317.821 135.7C317.821 136.612 318.013 137.416 318.397 138.112C318.781 138.796 319.303 139.33 319.963 139.714C320.635 140.098 321.385 140.29 322.213 140.29C322.969 140.29 323.617 140.152 324.157 139.876C324.697 139.6 325.135 139.228 325.471 138.76C325.807 138.292 326.041 137.776 326.173 137.212H322.303ZM334.76 135.808C334.58 135.664 334.412 135.556 334.256 135.484C334.1 135.4 333.902 135.358 333.662 135.358C333.182 135.358 332.834 135.538 332.618 135.898C332.402 136.258 332.294 136.738 332.294 137.338V142H330.368V133.72H332.294V134.728C332.534 134.356 332.822 134.068 333.158 133.864C333.494 133.648 333.836 133.54 334.184 133.54C334.484 133.54 334.766 133.588 335.03 133.684C335.294 133.78 335.522 133.936 335.714 134.152L334.76 135.808ZM336.136 137.86C336.136 137.008 336.328 136.258 336.712 135.61C337.108 134.962 337.642 134.458 338.314 134.098C338.998 133.726 339.76 133.54 340.6 133.54C341.452 133.54 342.214 133.726 342.886 134.098C343.558 134.458 344.086 134.962 344.47 135.61C344.866 136.258 345.064 137.008 345.064 137.86C345.064 138.7 344.866 139.45 344.47 140.11C344.086 140.758 343.558 141.268 342.886 141.64C342.214 142 341.452 142.18 340.6 142.18C339.76 142.18 338.998 142 338.314 141.64C337.642 141.268 337.108 140.758 336.712 140.11C336.328 139.45 336.136 138.7 336.136 137.86ZM338.134 137.86C338.134 138.628 338.368 139.258 338.836 139.75C339.316 140.23 339.904 140.47 340.6 140.47C341.308 140.47 341.896 140.23 342.364 139.75C342.832 139.258 343.066 138.628 343.066 137.86C343.066 137.08 342.832 136.45 342.364 135.97C341.896 135.49 341.308 135.25 340.6 135.25C339.904 135.25 339.316 135.49 338.836 135.97C338.368 136.45 338.134 137.08 338.134 137.86ZM348.907 138.76C348.907 139.348 349.033 139.804 349.285 140.128C349.537 140.452 349.921 140.614 350.437 140.614C350.989 140.614 351.433 140.446 351.769 140.11C352.117 139.762 352.291 139.312 352.291 138.76V133.72H354.235V142H352.291V140.722C351.763 141.694 350.929 142.18 349.789 142.18C348.865 142.18 348.151 141.892 347.647 141.316C347.155 140.74 346.909 139.96 346.909 138.976V133.72H348.907V138.76ZM358.608 145.96H356.646V133.72H358.608V135.106C358.908 134.602 359.298 134.212 359.778 133.936C360.258 133.648 360.81 133.504 361.434 133.504C362.154 133.504 362.82 133.678 363.432 134.026C364.044 134.362 364.536 134.854 364.908 135.502C365.28 136.15 365.466 136.936 365.466 137.86C365.466 138.784 365.28 139.57 364.908 140.218C364.536 140.866 364.044 141.364 363.432 141.712C362.82 142.048 362.154 142.216 361.434 142.216C360.81 142.216 360.258 142.078 359.778 141.802C359.298 141.514 358.908 141.118 358.608 140.614V145.96ZM363.45 137.86C363.45 137.032 363.204 136.396 362.712 135.952C362.22 135.496 361.638 135.268 360.966 135.268C360.594 135.268 360.228 135.37 359.868 135.574C359.508 135.766 359.208 136.054 358.968 136.438C358.728 136.822 358.608 137.296 358.608 137.86C358.608 138.424 358.728 138.898 358.968 139.282C359.208 139.666 359.508 139.96 359.868 140.164C360.228 140.356 360.594 140.452 360.966 140.452C361.638 140.452 362.22 140.23 362.712 139.786C363.204 139.33 363.45 138.688 363.45 137.86ZM373.42 137.392L367.228 134.728V132.802L376.408 136.708V137.932L367.228 141.838V139.912L373.42 137.392Z" fill="white"/>
</g>
<g clip-path="url(#clip0_314_10)">
<path d="M395.371 46.8813C394.077 45.9364 392.577 45.1127 390.913 44.4326C388.088 43.2775 385.046 43.6412 385.046 43.6412L386.981 51.4518C387.046 51.7117 387.278 51.8938 387.545 51.8938H398.768C399.089 51.8938 399.349 51.6327 399.349 51.3107C399.349 51.1882 396.995 48.0662 395.371 46.8819V46.8813Z" fill="#35D07F"/>
<path d="M394.413 44.8621C394.977 45.1938 395.525 45.5529 396.054 45.9382C397.015 46.6394 398.109 47.8504 398.857 48.7431C399.164 49.1087 399.468 49.4879 399.732 49.8323L401.267 43.6411C401.267 43.6411 396.975 43.6225 394.413 44.8621H394.413Z" fill="#85E2B2"/>
<path d="M393.156 44.1765L393.909 43.8116C394.292 43.6287 394.687 43.4721 395.091 43.3429V33.3602C395.091 33.2472 395.058 33.1367 394.997 33.0421C394.935 32.9475 394.848 32.8729 394.745 32.8274L393.379 32.0497C393.304 32.0167 393.224 31.9998 393.143 32C393.061 32.0002 392.981 32.0176 392.907 32.051L391.565 32.828C391.463 32.874 391.376 32.9486 391.315 33.0429C391.254 33.1372 391.222 33.2472 391.222 33.3596V43.3018L391.352 43.3534C391.976 43.6083 392.578 43.8837 393.157 44.1771L393.156 44.1765Z" fill="#FBCC5C"/>
<path d="M398.574 36.4948C398.574 36.2213 398.385 35.985 398.12 35.9253L396.765 35.5368C396.682 35.5183 396.596 35.5183 396.514 35.5368L396.252 35.612V43.026C397.018 42.8533 397.794 42.7242 398.574 42.6393V36.4942V36.4948ZM390.06 35.612L389.799 35.5374C389.716 35.519 389.631 35.519 389.548 35.5374L388.193 35.9253C388.064 35.9541 387.949 36.0261 387.866 36.1295C387.783 36.2329 387.738 36.3616 387.738 36.4942V42.4951C388.455 42.5647 389.249 42.6928 390.06 42.916V35.612V35.612Z" fill="#E1B752"/>
<path d="M399.735 39.9169V42.5341C400.201 42.5016 400.668 42.4823 401.135 42.4763C400.914 41.6836 400.446 40.8288 399.735 39.9169ZM386.577 42.4253V39.9038C385.87 40.8121 385.404 41.665 385.181 42.4588C385.646 42.4241 386.111 42.4129 386.577 42.4253V42.4253Z" fill="#C8A349"/>
<path d="M411.174 42.4815C411.174 41.6659 411.352 40.9547 411.709 40.348C412.075 39.7313 412.551 39.2489 413.135 38.9007C413.719 38.5526 414.353 38.3785 415.037 38.3785C415.532 38.3785 415.982 38.4432 416.388 38.5725C416.804 38.7018 417.181 38.8858 417.517 39.1245C417.854 39.3533 418.141 39.6219 418.379 39.9302V38.2592C417.943 37.8712 417.468 37.5828 416.953 37.3938C416.438 37.2048 415.799 37.1103 415.037 37.1103C414.314 37.1103 413.635 37.2446 413.001 37.5132C412.377 37.7718 411.828 38.1448 411.352 38.6322C410.877 39.1096 410.506 39.6766 410.238 40.333C409.971 40.9895 409.837 41.7057 409.837 42.4815C409.837 43.2574 409.971 43.9735 410.238 44.63C410.506 45.2865 410.877 45.8584 411.352 46.3458C411.828 46.8232 412.377 47.1962 413.001 47.4648C413.635 47.7234 414.314 47.8527 415.037 47.8527C415.799 47.8527 416.438 47.7582 416.953 47.5693C417.468 47.3803 417.943 47.0918 418.379 46.7039V45.0328C418.141 45.3412 417.854 45.6147 417.517 45.8534C417.181 46.0822 416.804 46.2613 416.388 46.3906C415.982 46.5199 415.532 46.5845 415.037 46.5845C414.353 46.5845 413.719 46.4105 413.135 46.0623C412.551 45.7142 412.075 45.2318 411.709 44.6151C411.352 43.9984 411.174 43.2872 411.174 42.4815Z" fill="black"/>
<path d="M421.715 36.0659H420.527V47.7035H421.715V36.0659ZM424.909 43.5259V47.7035H426.098V43.3767C426.098 42.7799 425.998 42.2826 425.8 41.8847C425.612 41.4869 425.34 41.1885 424.983 40.9895C424.637 40.7906 424.226 40.6911 423.75 40.6911C423.275 40.6911 422.854 40.8155 422.488 41.0641C422.131 41.3128 421.849 41.651 421.641 42.0787C421.433 42.4964 421.329 42.9789 421.329 43.5259H421.715C421.715 43.1977 421.784 42.9043 421.923 42.6456C422.072 42.387 422.275 42.1831 422.532 42.0339C422.8 41.8847 423.107 41.8101 423.453 41.8101C423.939 41.8101 424.3 41.9544 424.538 42.2428C424.785 42.5313 424.909 42.959 424.909 43.5259Z" fill="black"/>
<path d="M429.52 45.0179V40.8403H428.332V45.1671C428.332 45.9828 428.545 46.6343 428.97 47.1216C429.396 47.609 429.966 47.8527 430.679 47.8527C431.134 47.8527 431.531 47.7533 431.867 47.5543C432.204 47.3454 432.486 47.0371 432.714 46.6293V47.7035H433.902V40.8403H432.714V45.0179C432.714 45.3561 432.64 45.6545 432.491 45.9131C432.353 46.1717 432.15 46.3756 431.882 46.5248C431.625 46.6641 431.323 46.7337 430.976 46.7337C430.501 46.7337 430.139 46.5845 429.891 46.2861C429.644 45.9877 429.52 45.565 429.52 45.0179Z" fill="black"/>
<path d="M437.325 40.8403H436.137V47.7035H437.325V40.8403ZM439.39 42.1533L440.044 41.1686C439.865 40.9796 439.667 40.8552 439.449 40.7956C439.241 40.7259 439.014 40.6911 438.766 40.6911C438.449 40.6911 438.137 40.8155 437.83 41.0641C437.523 41.3128 437.271 41.651 437.072 42.0787C436.884 42.4964 436.79 42.9789 436.79 43.5259H437.325C437.325 43.1977 437.355 42.9043 437.414 42.6456C437.483 42.387 437.602 42.1831 437.771 42.0339C437.939 41.8847 438.172 41.8101 438.469 41.8101C438.667 41.8101 438.83 41.84 438.959 41.8996C439.088 41.9494 439.231 42.0339 439.39 42.1533Z" fill="black"/>
<path d="M442.417 40.8403H441.229V47.7035H442.417V40.8403ZM444.482 42.1533L445.136 41.1686C444.957 40.9796 444.759 40.8552 444.541 40.7956C444.333 40.7259 444.106 40.6911 443.858 40.6911C443.541 40.6911 443.229 40.8155 442.922 41.0641C442.615 41.3128 442.363 41.651 442.165 42.0787C441.976 42.4964 441.882 42.9789 441.882 43.5259H442.417C442.417 43.1977 442.447 42.9043 442.506 42.6456C442.576 42.387 442.694 42.1831 442.863 42.0339C443.031 41.8847 443.264 41.8101 443.561 41.8101C443.759 41.8101 443.922 41.84 444.051 41.8996C444.18 41.9494 444.324 42.0339 444.482 42.1533Z" fill="black"/>
<path d="M446.321 38.0055C446.321 38.2243 446.4 38.4183 446.558 38.5874C446.727 38.7465 446.92 38.8261 447.138 38.8261C447.366 38.8261 447.559 38.7465 447.717 38.5874C447.876 38.4183 447.955 38.2243 447.955 38.0055C447.955 37.7767 447.876 37.5828 447.717 37.4236C447.559 37.2645 447.366 37.1849 447.138 37.1849C446.92 37.1849 446.727 37.2645 446.558 37.4236C446.4 37.5828 446.321 37.7767 446.321 38.0055ZM446.544 40.8403V47.7035H447.732V40.8403H446.544Z" fill="black"/>
<path d="M449.14 40.8403V41.9593H452.557V40.8403H449.14ZM450.254 38.4531V47.7035H451.442V38.4531H450.254Z" fill="black"/>
<path d="M453.154 44.2719C453.154 44.9582 453.308 45.5749 453.615 46.122C453.932 46.6591 454.358 47.0819 454.892 47.3902C455.427 47.6986 456.026 47.8527 456.69 47.8527C457.363 47.8527 457.962 47.6986 458.487 47.3902C459.022 47.0819 459.443 46.6591 459.75 46.122C460.067 45.5749 460.225 44.9582 460.225 44.2719C460.225 43.5757 460.067 42.959 459.75 42.4218C459.443 41.8847 459.022 41.462 458.487 41.1536C457.962 40.8453 457.363 40.6911 456.69 40.6911C456.026 40.6911 455.427 40.8453 454.892 41.1536C454.358 41.462 453.932 41.8847 453.615 42.4218C453.308 42.959 453.154 43.5757 453.154 44.2719ZM454.358 44.2719C454.358 43.7945 454.457 43.3718 454.655 43.0037C454.863 42.6258 455.14 42.3323 455.487 42.1234C455.843 41.9146 456.244 41.8101 456.69 41.8101C457.135 41.8101 457.532 41.9146 457.878 42.1234C458.235 42.3323 458.512 42.6258 458.71 43.0037C458.918 43.3718 459.022 43.7945 459.022 44.2719C459.022 44.7494 458.918 45.1721 458.71 45.5401C458.512 45.9082 458.235 46.2016 457.878 46.4204C457.532 46.6293 457.135 46.7337 456.69 46.7337C456.244 46.7337 455.843 46.6293 455.487 46.4204C455.14 46.2016 454.863 45.9082 454.655 45.5401C454.457 45.1721 454.358 44.7494 454.358 44.2719Z" fill="black"/>
<path d="M462.631 38.4531H467.28V37.2595H462.631V38.4531ZM462.631 42.6307H467.132V41.4371H462.631V42.6307ZM461.932 37.2595V47.7035H463.195V37.2595H461.932Z" fill="black"/>
<path d="M469.286 38.0055C469.286 38.2243 469.365 38.4183 469.523 38.5874C469.692 38.7465 469.885 38.8261 470.103 38.8261C470.331 38.8261 470.524 38.7465 470.682 38.5874C470.841 38.4183 470.92 38.2243 470.92 38.0055C470.92 37.7767 470.841 37.5828 470.682 37.4236C470.524 37.2645 470.331 37.1849 470.103 37.1849C469.885 37.1849 469.692 37.2645 469.523 37.4236C469.365 37.5828 469.286 37.7767 469.286 38.0055ZM469.509 40.8403V47.7035H470.697V40.8403H469.509Z" fill="black"/>
</g>
<defs>
<filter id="filter0_d_314_10" x="37" y="111" width="438" height="52" filterUnits="userSpaceOnUse" color-interpolation-filters="sRGB">
<feFlood flood-opacity="0" result="BackgroundImageFix"/>
<feColorMatrix in="SourceAlpha" type="matrix" values="0 0 0 0 0 0 0 0 0 0 0 0 0 0 0 0 0 0 127 0" result="hardAlpha"/>
<feOffset dy="1"/>
<feGaussianBlur stdDeviation="1.5"/>
<feColorMatrix type="matrix" values="0 0 0 0 0 0 0 0 0 0 0 0 0 0 0 0 0 0 0.25 0"/>
<feBlend mode="normal" in2="BackgroundImageFix" result="effect1_dropShadow_314_10"/>
<feBlend mode="normal" in="SourceGraphic" in2="effect1_dropShadow_314_10" result="shape"/>
</filter>
<clipPath id="clip0_314_10">
<rect width="86" height="20" fill="white" transform="translate(385 32)"/>
</clipPath>
</defs>
</svg>
